<svg width="25" height="25" viewBox="0 0 25 25" fill="none" xmlns="http://www.w3.org/2000/svg">
<g clip-path="url(#clip0)">
<path d="M16.1517 23.6483H8.28955C8.17529 23.6483 8.08264 23.741 8.08264 23.8552C8.08264 23.9695 8.17529 24.0621 8.28955 24.0621H16.1517C16.266 24.0621 16.3586 23.9695 16.3586 23.8552C16.3586 23.741 16.266 23.6483 16.1517 23.6483Z" fill="#E200E1"/>
<path d="M12.1234 9.99323C13.666 10.0355 15.0333 9.0061 15.4193 7.51196C15.8052 6.01764 15.1074 4.45502 13.7371 3.74493C13.3168 3.534 13.0504 3.10498 13.0482 2.63477V2.54486C13.0462 2.34509 12.9001 2.1759 12.7027 2.14478C12.8917 1.53485 13.4082 0.889771 13.8757 0.889771H15.1171C16.0945 0.889771 16.3275 1.22412 16.6481 1.68701C17.0441 2.25519 17.5349 2.95868 19.2551 2.95868C19.4836 2.95868 19.6688 2.77338 19.6688 2.54486C19.6688 2.31635 19.4836 2.13104 19.2551 2.13104C17.9674 2.13104 17.6715 1.70605 17.3289 1.21405C16.9713 0.700989 16.5269 0.0621338 15.1171 0.0621338H13.8757C12.8413 0.0621338 12.082 1.21167 11.8721 2.02814C11.8659 2.06201 11.8641 2.09662 11.8668 2.13104H11.8068C11.5783 2.13104 11.3929 2.31635 11.3929 2.54486V2.63513C11.3911 3.1048 11.1256 3.53363 10.7061 3.74493C9.5661 4.32355 8.86554 5.51117 8.91022 6.7887C9.04444 8.50311 10.4086 9.86377 12.1234 9.99323ZM9.73786 6.68286C9.73914 5.31213 10.85 4.20142 12.2206 4.20013C12.4491 4.20013 12.6344 4.38525 12.6344 4.61377C12.6344 4.84247 12.4491 5.02759 12.2206 5.02759C11.3065 5.02759 10.5655 5.76862 10.5655 6.68286C10.5655 6.91138 10.3802 7.09668 10.1517 7.09668C9.92316 7.09668 9.73786 6.91138 9.73786 6.68286Z" fill="#E200E1"/>
<path d="M3.11719 18.6829C3.11719 19.3684 3.67291 19.9241 4.35864 19.9241H20.0826C20.7684 19.9241 21.3241 19.3684 21.3241 18.6829V18.269H3.11719V18.6829ZM12.2206 18.6829C12.4492 18.6829 12.6345 18.8682 12.6345 19.0967C12.6345 19.3252 12.4492 19.5105 12.2206 19.5105C11.9921 19.5105 11.8068 19.3252 11.8068 19.0967C11.8068 18.8682 11.9921 18.6829 12.2206 18.6829Z" fill="#E200E1"/>
<path d="M10.9531 20.7518C10.8605 21.5082 10.5605 22.2241 10.0867 22.8207H14.3545C13.8806 22.2241 13.5807 21.5082 13.488 20.7518H10.9531Z" fill="#E200E1"/>
<path d="M19.9655 6H16.1486C16.4011 7.21655 16.0922 8.48199 15.3074 9.44531C14.5228 10.4084 13.3458 10.9669 12.1035 10.9655C12.0621 10.9655 12.0207 10.9655 11.9793 10.9655C9.82635 10.8265 8.10974 9.11389 7.96545 6.9613C7.95868 6.63831 7.98926 6.31586 8.05701 6H4.24146C3.55573 6 3 6.55573 3 7.24146V17.5862H21.2069V7.24146C21.2069 6.55573 20.6512 6 19.9655 6ZM10.9834 13.327C10.8265 13.1647 10.8287 12.9066 10.9883 12.7471C11.148 12.5874 11.406 12.5852 11.5684 12.7419L12.1035 13.277L12.6385 12.7419C12.8009 12.5852 13.0589 12.5874 13.2186 12.7471C13.3782 12.9066 13.3804 13.1647 13.2235 13.327L12.6885 13.862L13.2235 14.397C13.3312 14.501 13.3742 14.6548 13.3365 14.7995C13.2986 14.9442 13.1856 15.0571 13.041 15.095C12.8963 15.1329 12.7423 15.0897 12.6385 14.9822L12.1035 14.4472L11.5684 14.9822C11.406 15.139 11.148 15.1368 10.9883 14.9771C10.8287 14.8176 10.8265 14.5594 10.9834 14.397L11.5184 13.862L10.9834 13.327ZM6.8454 13.327C6.68848 13.1647 6.69086 12.9066 6.85034 12.7471C7.01001 12.5874 7.26819 12.5852 7.43042 12.7419L7.96545 13.277L8.50049 12.7419C8.6629 12.5852 8.92108 12.5874 9.08057 12.7471C9.24023 12.9066 9.24243 13.1647 9.08569 13.327L8.55066 13.862L9.08569 14.397C9.19318 14.501 9.23639 14.6548 9.19849 14.7995C9.16058 14.9442 9.04761 15.0571 8.90295 15.095C8.7583 15.1329 8.60449 15.0897 8.50049 14.9822L7.96545 14.4472L7.43042 14.9822C7.26819 15.139 7.01001 15.1368 6.85034 14.9771C6.69086 14.8176 6.68848 14.5594 6.8454 14.397L7.38043 13.862L6.8454 13.327ZM17.0689 16.7585H7.138C6.90948 16.7585 6.72418 16.5734 6.72418 16.3449C6.72418 16.1164 6.90948 15.9311 7.138 15.9311H17.0689C17.2974 15.9311 17.4827 16.1164 17.4827 16.3449C17.4827 16.5734 17.2974 16.7585 17.0689 16.7585ZM17.3615 14.397C17.469 14.501 17.5122 14.6548 17.4743 14.7995C17.4364 14.9442 17.3234 15.0571 17.1788 15.095C17.0341 15.1329 16.8803 15.0897 16.7765 14.9822L16.2415 14.4472L15.7064 14.9822C15.544 15.139 15.2858 15.1368 15.1263 14.9771C14.9667 14.8176 14.9645 14.5594 15.1212 14.397L15.6562 13.862L15.1212 13.327C14.9645 13.1647 14.9667 12.9066 15.1263 12.7471C15.2858 12.5874 15.544 12.5852 15.7064 12.7419L16.2415 13.277L16.7765 12.7419C16.9387 12.5852 17.1969 12.5874 17.3566 12.7471C17.5161 12.9066 17.5182 13.1647 17.3615 13.327L16.8265 13.862L17.3615 14.397Z" fill="#E200E1"/>
<path d="M21.7379 2.13104H20.9103C20.6818 2.13104 20.4965 2.31635 20.4965 2.54486C20.4965 2.77338 20.6818 2.95868 20.9103 2.95868H21.7379C21.9664 2.95868 22.1517 2.77338 22.1517 2.54486C22.1517 2.31635 21.9664 2.13104 21.7379 2.13104Z" fill="#E200E1"/>
<path d="M20.4965 1.71724C20.6063 1.71724 20.7114 1.67366 20.7891 1.59602L21.2029 1.18221C21.3596 1.01997 21.3574 0.761796 21.1978 0.602311C21.0383 0.442643 20.7801 0.440446 20.6177 0.597184L20.2039 1.011C20.0856 1.12929 20.0502 1.30727 20.1143 1.46181C20.1784 1.61653 20.3291 1.71724 20.4965 1.71724Z" fill="#E200E1"/>
<path d="M20.7891 3.49373C20.6267 3.33699 20.3687 3.33919 20.209 3.49886C20.0493 3.65834 20.0471 3.91652 20.2039 4.07875L20.6177 4.49257C20.7801 4.64949 21.0383 4.64729 21.1978 4.48762C21.3574 4.32796 21.3596 4.06996 21.2029 3.90755L20.7891 3.49373Z" fill="#E200E1"/>
</g>
<defs>
<clipPath id="clip0">
<rect width="24" height="24" fill="white" transform="translate(0.632812 0.0621338)"/>
</clipPath>
</defs>
</svg>
