<svg width="25" height="25" viewBox="0 0 25 25" fill="none" xmlns="http://www.w3.org/2000/svg">
<g clip-path="url(#clip0)">
<path d="M12 4C6.70643 4 2.14408 7.12053 0.0482755 11.6237C-0.0160918 11.7601 -0.0160918 11.9198 0.0482755 12.0588C2.14408 16.5619 6.70646 19.6825 12 19.6825C17.2935 19.6825 21.8559 16.5619 23.9517 12.0588C24.0161 11.9223 24.0161 11.7627 23.9517 11.6237C21.8559 7.12053 17.2936 4 12 4ZM12 17.252C9.01078 17.252 6.59057 14.8292 6.59057 11.8425C6.59057 8.85331 9.01336 6.43309 12 6.43309C14.9892 6.43309 17.4094 8.85588 17.4094 11.8425C17.4094 14.8292 14.9866 17.252 12 17.252Z" fill="#E200E1"/>
<path d="M12.1329 15.5238C14.0454 15.5238 15.5958 13.9733 15.5958 12.0608C15.5958 10.1483 14.0454 8.59784 12.1329 8.59784C10.2203 8.59784 8.66992 10.1483 8.66992 12.0608C8.66992 13.9733 10.2203 15.5238 12.1329 15.5238Z" fill="#E200E1"/>
</g>
<defs>
<clipPath id="clip0">
<rect width="24" height="24" fill="white" transform="translate(0.132812 0.0621338)"/>
</clipPath>
</defs>
</svg>
