<svg width="25" height="25" viewBox="0 0 25 25" fill="none" xmlns="http://www.w3.org/2000/svg">
<g clip-path="url(#clip0)">
<path d="M19.5255 22.5541C19.6408 22.5541 19.7273 22.657 19.7109 22.771C19.6057 23.5012 18.9777 24.0621 18.2184 24.0621H6.04687C5.28754 24.0621 4.65951 23.5012 4.55437 22.7711C4.53796 22.657 4.62454 22.5542 4.73976 22.5542H19.5255V22.5541Z" fill="#E200E1"/>
<path d="M19.7265 14.4059C19.7265 13.5775 19.0549 12.9059 18.2265 12.9059H6.039C5.21058 12.9059 4.539 13.5775 4.539 14.4059V21.6092C4.539 21.7127 4.62295 21.7967 4.7265 21.7967H19.539C19.6425 21.7967 19.7265 21.7127 19.7265 21.6092V14.4059ZM13.914 19.9271V20.3462C13.914 20.5459 13.7633 20.7203 13.564 20.7332C13.3456 20.7474 13.164 20.5744 13.164 20.359V20.1514C13.164 20.1125 13.1325 20.081 13.0937 20.081H13.0468C13.008 20.081 12.9765 20.1125 12.9765 20.1514V20.3551C12.9765 20.5548 12.8258 20.7292 12.6265 20.7421C12.4081 20.7563 12.2265 20.5833 12.2265 20.3679V20.1514C12.2265 20.1125 12.195 20.081 12.1562 20.081H12.0624C12.0236 20.081 11.9921 20.1125 11.9921 20.1514V20.3551C11.9921 20.5548 11.8414 20.7292 11.6421 20.7421C11.4237 20.7562 11.2421 20.5833 11.2421 20.3679V20.1514C11.2421 20.0565 11.1015 20.0595 11.1015 20.1514V20.3462C11.1015 20.5459 10.9508 20.7203 10.7514 20.7332C10.533 20.7473 10.3515 20.5744 10.3515 20.359C10.3515 19.8889 10.3612 19.9003 10.3242 19.8717C9.54117 19.2664 9.10894 18.3104 9.18914 17.2982C9.30999 15.7729 10.6012 14.5853 12.1312 14.5845C13.7603 14.5836 15.0859 15.9087 15.0859 17.5376C15.0859 18.459 14.6623 19.3139 13.9412 19.872C13.9242 19.8852 13.914 19.9055 13.914 19.9271Z" fill="#E200E1"/>
<path d="M11.7577 18.6767C11.7577 18.8838 11.9256 19.0517 12.1327 19.0517C12.3398 19.0517 12.5077 18.8838 12.5077 18.6767C12.5077 18.4549 12.3323 18.2965 12.1327 18.2965C11.9332 18.2965 11.7577 18.4549 11.7577 18.6767Z" fill="#E200E1"/>
<path d="M11.1014 18.2965C11.515 18.2965 11.8514 17.96 11.8514 17.5465C11.8514 17.133 11.515 16.7965 11.1014 16.7965C10.6879 16.7965 10.3514 17.133 10.3514 17.5465C10.3514 17.96 10.6879 18.2965 11.1014 18.2965Z" fill="#E200E1"/>
<path d="M13.1639 18.2965C13.5774 18.2965 13.9139 17.96 13.9139 17.5465C13.9139 17.133 13.5774 16.7965 13.1639 16.7965C12.7503 16.7965 12.4139 17.133 12.4139 17.5465C12.4139 17.96 12.7503 18.2965 13.1639 18.2965Z" fill="#E200E1"/>
<path d="M11.4067 8.3126L11.202 8.1079C11.0556 7.96151 10.8181 7.96151 10.6717 8.1079C10.5252 8.25438 10.5252 8.49176 10.6717 8.63824C10.9814 8.94794 11.0521 9.0626 11.2514 9.0626C11.9447 9.0626 11.9395 9.09663 12.1327 8.90341C12.328 9.09897 12.3241 9.0626 13.0139 9.0626C13.2089 9.0626 13.2694 8.96252 13.5936 8.63824C13.7401 8.49176 13.7401 8.25438 13.5936 8.1079C13.4471 7.96151 13.2098 7.96151 13.0633 8.1079L12.8586 8.3126H12.6025L12.3979 8.1079C12.2514 7.96156 12.014 7.96151 11.8675 8.1079L11.6628 8.3126H11.4067Z" fill="#E200E1"/>
<path d="M10.3331 6.71085C10.8935 6.89296 11.0913 6.56052 11.2728 6.64119C11.462 6.72505 11.6837 6.63983 11.7677 6.45055C11.9735 5.98686 11.2774 5.70693 10.7572 5.98321C10.7057 6.01021 10.6568 6.02802 10.5864 6.00458C10.0765 5.83888 9.86847 6.55986 10.3331 6.71085Z" fill="#E200E1"/>
<path d="M12.9926 6.64121C13.1597 6.56687 13.2254 6.76505 13.6174 6.76505C14.4988 6.76505 14.2446 5.82081 13.6767 6.0054C13.6081 6.02818 13.5569 6.00868 13.51 5.98412C12.988 5.70709 12.2912 5.98506 12.4977 6.45052C12.5817 6.63976 12.8031 6.72521 12.9926 6.64121Z" fill="#E200E1"/>
<path d="M22.8333 17.4202L22.1213 14.4839C21.8232 13.2525 20.941 12.2409 19.7616 11.7778C19.7589 11.7772 16.2407 10.4607 16.238 10.4597C17.203 9.68775 17.5105 8.60845 17.2655 7.61531L16.2038 3.31875C15.721 1.36453 13.9782 0 11.9654 0C9.95022 0 8.2074 1.36641 7.72647 3.32297C6.93081 6.55725 7.17503 5.56472 6.65818 7.66453C6.415 8.6535 6.73501 9.75699 7.64818 10.4752C4.14489 11.7861 4.171 11.7767 4.16631 11.7778C2.98693 12.2414 2.10475 13.2525 1.80662 14.4839C1.02822 17.6939 1.08597 17.4531 1.07162 17.5209C0.704825 19.249 1.78253 20.9594 3.4885 21.4195C3.60803 21.4519 3.72568 21.3623 3.72568 21.2381V13.8595C3.72568 12.9596 4.45412 12.2371 5.34287 12.232H18.5846C19.4757 12.2371 20.2022 12.9616 20.2022 13.8595V21.2452C20.2022 21.3689 20.3199 21.4589 20.4394 21.4266C22.1852 20.9545 23.2643 19.193 22.8333 17.4202ZM14.9336 5.30536L14.8004 7.25986C14.7337 8.24095 14.2457 9.14452 13.4617 9.73889C12.3166 10.6062 12.3992 10.5465 12.339 10.5818V10.1503C12.339 9.94322 12.1711 9.77531 11.964 9.77531C11.7569 9.77531 11.589 9.94322 11.589 10.1503V10.5818C11.5285 10.5464 11.6112 10.606 10.4665 9.73899C9.68237 9.14456 9.1944 8.24095 9.12765 7.25981L8.99443 5.30541C10.8206 4.21884 13.1006 4.21467 14.9336 5.30536ZM15.8579 9.80344L14.6064 10.8066C13.0508 12.0546 10.8692 12.0633 9.30245 10.8258L8.07808 9.85875C7.47433 9.38156 7.20292 8.59078 7.38667 7.84359L7.77283 6.27469C7.93178 6.10936 8.10011 5.95373 8.27701 5.8087L8.37939 7.31072C8.46081 8.50823 9.05636 9.61111 10.0135 10.3367L11.0605 11.1296C11.5765 11.5211 12.3208 11.5444 12.8673 11.1298L13.9146 10.3366C14.8716 9.61111 15.4672 8.50823 15.5486 7.31077L15.651 5.80856C15.831 5.95608 16.0022 6.11456 16.1635 6.28303L16.5371 7.79527C16.7204 8.53688 16.4537 9.32531 15.8579 9.80344Z" fill="#E200E1"/>
</g>
<defs>
<clipPath id="clip0">
<rect width="24" height="24" fill="white" transform="translate(0.132812 0.0621338)"/>
</clipPath>
</defs>
</svg>
