<svg width="25" height="25" fill="none" xmlns="http://www.w3.org/2000/svg"><g clip-path="url(#clip0)" fill="#E200E1"><path d="M19.53 22.55c.11 0 .2.1.18.22a1.5 1.5 0 01-1.5 1.3H6.06a1.5 1.5 0 01-1.5-1.3.19.19 0 01.19-.22h14.79zM19.73 14.4c0-.82-.68-1.5-1.5-1.5H6.03c-.82 0-1.5.68-1.5 1.5v7.2c0 .11.1.2.2.2h14.8c.11 0 .2-.09.2-.2v-7.2zm-5.82 5.53v.42a.38.38 0 11-.75.01v-.2a.07.07 0 00-.07-.08h-.04a.07.07 0 00-.07.07v.2c0 .2-.15.38-.35.4a.38.38 0 01-.4-.38v-.22a.07.07 0 00-.07-.07h-.1a.07.07 0 00-.07.07v.2c0 .2-.15.38-.35.4a.38.38 0 01-.4-.38v-.22c0-.1-.14-.09-.14 0v.2a.37.37 0 11-.75.01c0-.47.01-.46-.03-.49a2.94 2.94 0 011.81-5.29 2.96 2.96 0 011.81 5.3.07.07 0 00-.03.05z"/><path d="M11.76 18.68a.38.38 0 00.75 0 .37.37 0 10-.75 0zM11.1 18.3a.75.75 0 100-1.5.75.75 0 000 1.5zM13.16 18.3a.75.75 0 100-1.5.75.75 0 000 1.5zM11.4 8.31l-.2-.2a.38.38 0 00-.53.53c.31.3.38.42.58.42.7 0 .69.04.88-.16.2.2.2.16.88.16.2 0 .26-.1.58-.42a.37.37 0 10-.53-.53l-.2.2h-.26l-.2-.2a.38.38 0 00-.53 0l-.2.2h-.26zM10.33 6.71c.56.18.76-.15.94-.07.2.09.41 0 .5-.19.2-.46-.5-.74-1.01-.47-.05.03-.1.05-.17.02-.51-.16-.72.56-.26.71zM13 6.64c.16-.07.23.13.62.13.88 0 .62-.95.06-.76-.07.02-.12 0-.17-.03-.52-.27-1.22 0-1.01.47.08.19.3.28.5.2z"/><path d="M22.83 17.42l-.7-2.94a3.9 3.9 0 00-2.37-2.7l-3.52-1.32a2.74 2.74 0 001.03-2.84l-1.07-4.3a4.36 4.36 0 00-8.47 0L6.66 7.66c-.25 1 .08 2.1.99 2.82l-3.48 1.3a3.9 3.9 0 00-2.36 2.7l-.74 3.04a3.34 3.34 0 002.42 3.9c.12.03.24-.06.24-.18v-7.38c0-.9.72-1.62 1.61-1.63h13.24c.9 0 1.62.73 1.62 1.63v7.39c0 .12.12.2.24.18a3.34 3.34 0 002.4-4.01zm-7.9-12.11l-.13 1.95a3.4 3.4 0 01-1.34 2.48c-1.14.87-1.06.8-1.12.84v-.43a.38.38 0 00-.75 0v.43c-.06-.03.02.03-1.12-.84a3.4 3.4 0 01-1.34-2.48l-.14-1.95a5.8 5.8 0 015.94 0zm.93 4.5l-1.25 1a4.24 4.24 0 01-5.3.02l-1.23-.97a1.97 1.97 0 01-.7-2.02l.4-1.57c.15-.16.32-.32.5-.46l.1 1.5c.08 1.2.68 2.3 1.63 3.03l1.05.79c.52.4 1.26.41 1.8 0l1.05-.8a4.15 4.15 0 001.64-3.02l.1-1.5c.18.15.35.3.51.47l.38 1.52c.18.74-.09 1.53-.68 2z"/></g><defs><clipPath id="clip0"><path fill="#fff" transform="translate(.13 .06)" d="M0 0h24v24H0z"/></clipPath></defs></svg>