<svg width="24" height="24" viewBox="0 0 24 24" fill="none" xmlns="http://www.w3.org/2000/svg">
<g clip-path="url(#clip0)">
<path d="M12.3179 2.71187C12.0815 2.59206 11.7979 2.6154 11.5842 2.77206L6.12141 6.77814H0.703125C0.314766 6.77814 0 7.09295 0 7.48126V16.5188C0 16.9071 0.314766 17.2219 0.703125 17.2219H6.12141L11.5842 21.2279C11.7071 21.3181 11.8531 21.364 12.0001 21.364C12.1085 21.364 12.2174 21.339 12.3179 21.2881C12.5542 21.1683 12.7031 20.9259 12.7031 20.6609V3.33906C12.7031 3.07412 12.5542 2.83163 12.3179 2.71187Z" fill="#E200E1"/>
<path d="M20.9022 12.0002L23.794 9.10835C24.0687 8.8338 24.0687 8.38858 23.794 8.11399C23.5195 7.83944 23.0744 7.83944 22.7997 8.11399L19.9078 11.0059L17.0159 8.11399C16.7414 7.83944 16.2962 7.83944 16.0216 8.11399C15.747 8.38854 15.747 8.83376 16.0216 9.10835L18.9134 12.0002L16.0216 14.8921C15.747 15.1666 15.747 15.6118 16.0216 15.8864C16.1589 16.0237 16.3388 16.0924 16.5188 16.0924C16.6987 16.0924 16.8787 16.0237 17.0159 15.8864L19.9078 12.9946L22.7996 15.8864C22.937 16.0237 23.1169 16.0924 23.2968 16.0924C23.4767 16.0924 23.6567 16.0237 23.7939 15.8864C24.0686 15.6118 24.0686 15.1667 23.7939 14.8921L20.9022 12.0002Z" fill="#E200E1"/>
</g>
<defs>
<clipPath id="clip0">
<rect width="24" height="24" fill="white"/>
</clipPath>
</defs>
</svg>
