<svg width="25" height="25" viewBox="0 0 25 25" fill="none" xmlns="http://www.w3.org/2000/svg">
<g clip-path="url(#clip0)">
<path d="M15.8665 9.81268L13.3902 9.79033L12.1328 7.65704L10.8754 9.79033L8.39911 9.81268L9.6179 11.9683L8.39911 14.124L10.8754 14.1463L12.1328 16.2796L13.3902 14.1463L15.8665 14.124L14.6477 11.9683L15.8665 9.81268Z" fill="#E200E1"/>
<path d="M21.8403 10.0782C21.1249 7.93458 21.0954 5.6212 21.7562 3.46008L22.2135 1.96416L20.2493 0C17.556 1.55503 14.8627 1.55503 12.1694 0C9.4761 1.55503 6.78275 1.55503 4.08946 0L2.12525 1.9642L2.58261 3.46012C3.24336 5.62125 3.21393 7.93463 2.49847 10.0783C0.93852 14.752 3.14732 19.8507 7.62383 21.9095L12.1694 24L16.715 21.9095C21.1915 19.8507 23.4003 14.752 21.8403 10.0782ZM18.3014 15.4465L14.2346 15.4832L12.1694 18.9869L10.1042 15.4832L6.03735 15.4465L8.039 11.9062L6.03735 8.36597L10.1042 8.32927L12.1694 4.82555L14.2346 8.32917L18.3014 8.36588L16.2998 11.9062L18.3014 15.4465Z" fill="#E200E1"/>
</g>
<defs>
<clipPath id="clip0">
<rect width="24" height="24" fill="white" transform="translate(0.132812 0.0621338)"/>
</clipPath>
</defs>
</svg>
